<svg xmlns="http://www.w3.org/2000/svg" width="24" height="25" viewBox="0 0 24 25" fill="none">
<g clip-path="url(#clip0_1_6788)">
<path d="M14.961 4.15872C15.6409 3.22495 16.1022 1.97116 15.9805 0.689941C14.9853 0.744283 13.7709 1.41093 13.0678 2.34543C12.4364 3.14569 11.8777 4.45197 12.0233 5.67948C13.1405 5.7859 14.2566 5.06629 14.961 4.15872Z" fill="black"/>
<path d="M16.3801 5.6973C14.559 5.58744 13.0106 6.74398 12.141 6.74398C11.2709 6.74398 9.93914 5.75266 8.49877 5.77937C6.62405 5.80726 4.88452 6.88072 3.93317 8.58802C1.97642 12.0034 3.41678 17.0697 5.31962 19.8514C6.24369 21.2276 7.35733 22.7429 8.82474 22.6885C10.2112 22.6334 10.7546 21.7793 12.4399 21.7793C14.124 21.7793 14.6135 22.6885 16.0811 22.6609C17.6031 22.6334 18.5546 21.2841 19.4787 19.9065C20.5387 18.3377 20.9727 16.8229 21 16.7398C20.9727 16.7122 18.0652 15.5827 18.0382 12.1956C18.0108 9.35962 20.321 8.01064 20.4297 7.92698C19.1251 5.97298 17.0867 5.75266 16.3801 5.6973Z" fill="black"/>
</g>
<defs>
<clipPath id="clip0_1_6788">
<rect width="24" height="24" fill="white" transform="translate(0 0.689941)"/>
</clipPath>
</defs>
</svg>