<svg xmlns="http://www.w3.org/2000/svg" width="24" height="25" viewBox="0 0 24 25" fill="none">
<path d="M8 10.67V8.67004H6V13.17C6 13.4461 5.77614 13.67 5.5 13.67C5.22386 13.67 5 13.4461 5 13.17V7.67004H8C8 5.26632 9.95227 3.67004 12 3.67004C14.0575 3.67004 16 5.3756 16 7.67004H19V20.17C19 20.9984 18.3284 21.67 17.5 21.67H12.5C12.2239 21.67 12 21.4461 12 21.17C12 20.8939 12.2239 20.67 12.5 20.67H17.5C17.7761 20.67 18 20.4461 18 20.17V8.67004H16V10.67H15V8.67004H9V10.67H8ZM12 4.67004C10.4477 4.67004 9 5.87376 9 7.67004H15C15 5.96448 13.5425 4.67004 12 4.67004Z" fill="#15151A"/>
<path d="M7.5 14.67C7.77614 14.67 8 14.8939 8 15.17V17.67H10.5C10.7761 17.67 11 17.8939 11 18.17C11 18.4461 10.7761 18.67 10.5 18.67H8V21.17C8 21.4461 7.77614 21.67 7.5 21.67C7.22386 21.67 7 21.4461 7 21.17V18.67H4.5C4.22386 18.67 4 18.4461 4 18.17C4 17.8939 4.22386 17.67 4.5 17.67H7V15.17C7 14.8939 7.22386 14.67 7.5 14.67Z" fill="#15151A"/>
</svg>