<svg xmlns="http://www.w3.org/2000/svg" width="32" height="33" viewBox="0 0 32 33" fill="none">
  <path d="M16 0.189941C29.3333 0.189941 32 2.85661 32 16.1899C32 29.5233 29.3333 32.1899 16 32.1899C2.66667 32.1899 0 29.5233 0 16.1899C0 2.85661 2.66667 0.189941 16 0.189941Z" fill="url(#paint0_linear_1_6804)"/>
  <path fill-rule="evenodd" clip-rule="evenodd" d="M15.9999 8.53805C18.4921 8.53805 18.787 8.54771 19.7714 8.59251C20.6813 8.63398 21.1755 8.78591 21.5045 8.91371C21.9402 9.08305 22.251 9.28531 22.5777 9.61171C22.9045 9.93845 23.1068 10.2493 23.2757 10.685C23.4035 11.014 23.5555 11.5082 23.597 12.4181C23.6418 13.4021 23.6514 13.6974 23.6514 16.1896C23.6514 18.6818 23.6418 18.9767 23.597 19.9611C23.5555 20.871 23.4035 21.3652 23.2757 21.6942C23.1065 22.1299 22.9042 22.4407 22.5777 22.7674C22.251 23.0942 21.9402 23.2965 21.5045 23.4654C21.1755 23.5932 20.6813 23.7452 19.7714 23.7866C18.7874 23.8315 18.4921 23.8411 15.9999 23.8411C13.5077 23.8411 13.2124 23.8315 12.2284 23.7866C11.3185 23.7452 10.8243 23.5932 10.4953 23.4654C10.0596 23.2962 9.74875 23.0938 9.42201 22.7674C9.09528 22.4407 8.89295 22.1299 8.72401 21.6942C8.59622 21.3652 8.44428 20.871 8.40281 19.9611C8.35801 18.9771 8.34835 18.6818 8.34835 16.1896C8.34835 13.6974 8.35801 13.4024 8.40281 12.4181C8.44428 11.5082 8.59622 11.014 8.72401 10.685C8.89335 10.2493 9.09561 9.93845 9.42201 9.61171C9.74875 9.28498 10.0596 9.08265 10.4953 8.91371C10.8243 8.78591 11.3185 8.63398 12.2284 8.59251C13.2127 8.54771 13.5077 8.53805 15.9999 8.53805ZM15.9999 6.85645C13.4651 6.85645 13.1472 6.86718 12.1517 6.91278C11.1585 6.95798 10.4801 7.11578 9.88621 7.34658C9.27235 7.58518 8.75181 7.90418 8.23315 8.42318C7.71448 8.94191 7.39508 9.46238 7.15688 10.0759C6.92608 10.6698 6.76828 11.3482 6.72308 12.3414C6.67748 13.3369 6.66675 13.6548 6.66675 16.1896C6.66675 18.7244 6.67748 19.0423 6.72308 20.0378C6.76828 21.031 6.92608 21.7094 7.15688 22.3032C7.39548 22.9172 7.71448 23.4376 8.23348 23.9564C8.75255 24.4754 9.27268 24.7944 9.88661 25.033C10.4801 25.2638 11.1588 25.4216 12.1521 25.4668C13.1475 25.5124 13.4654 25.5231 16.0003 25.5231C18.5351 25.5231 18.8529 25.5124 19.8485 25.4668C20.8417 25.4216 21.5204 25.2638 22.1139 25.033C22.7278 24.7944 23.2483 24.4754 23.767 23.9564C24.2861 23.4373 24.6051 22.9172 24.8436 22.3032C25.0744 21.7098 25.2323 21.031 25.2775 20.0378C25.323 19.0423 25.3338 18.7244 25.3338 16.1896C25.3338 13.6548 25.323 13.3369 25.2775 12.3414C25.2323 11.3482 25.0744 10.6694 24.8436 10.0759C24.6051 9.46205 24.2861 8.94151 23.767 8.42285C23.2479 7.90378 22.7278 7.58478 22.1139 7.34625C21.5197 7.11578 20.8413 6.95798 19.8481 6.91278C18.8526 6.86718 18.5347 6.85645 15.9999 6.85645ZM15.9999 11.397C13.3528 11.397 11.2073 13.5429 11.2073 16.1896C11.2073 18.8363 13.3532 20.9821 15.9999 20.9821C18.6466 20.9821 20.7924 18.8363 20.7924 16.1896C20.7924 13.5429 18.6469 11.397 15.9999 11.397ZM15.9999 19.3005C14.2816 19.3005 12.8889 17.9075 12.8889 16.1896C12.8889 14.4713 14.2819 13.0786 15.9999 13.0786C17.7178 13.0786 19.1108 14.4716 19.1108 16.1896C19.1108 17.9079 17.7182 19.3005 15.9999 19.3005ZM22.1021 11.2074C22.1021 11.8259 21.6007 12.3273 20.9821 12.3273C20.3636 12.3273 19.8621 11.8259 19.8621 11.2074C19.8621 10.5888 20.3636 10.0874 20.9821 10.0874C21.6007 10.0874 22.1021 10.5888 22.1021 11.2074Z" fill="white"/>
  <defs>
    <linearGradient id="paint0_linear_1_6804" x1="28.5403" y1="3.96087" x2="3.36279" y2="28.5135" gradientUnits="userSpaceOnUse">
      <stop stop-color="#BA00B2"/>
      <stop offset="0.5" stop-color="#F40000"/>
      <stop offset="1" stop-color="#FFA800"/>
    </linearGradient>
  </defs>
</svg>