<svg xmlns="http://www.w3.org/2000/svg" width="32" height="33" viewBox="0 0 32 33" fill="none">
  <path d="M16 0.189941C29.3333 0.189941 32 2.85661 32 16.1899C32 29.5233 29.3333 32.1899 16 32.1899C2.66667 32.1899 0 29.5233 0 16.1899C0 2.85661 2.66667 0.189941 16 0.189941Z" fill="url(#paint0_linear_1_6808)"/>
  <path d="M7.86123 16.0557C12.5256 14.0235 15.6358 12.6837 17.1921 12.0365C21.6355 10.1883 22.5588 9.86731 23.1606 9.85654C23.2929 9.85436 23.5889 9.88716 23.7806 10.0427C23.9424 10.1741 23.987 10.3515 24.0083 10.476C24.0296 10.6005 24.0561 10.8842 24.035 11.1059C23.7942 13.6358 22.7524 19.7755 22.2223 22.6091C21.998 23.808 21.5564 24.2101 21.1289 24.2494C20.1997 24.3349 19.4942 23.6354 18.5942 23.0455C17.186 22.1224 16.3905 21.5477 15.0236 20.6469C13.4438 19.606 14.4679 19.0338 15.3681 18.0987C15.6038 17.8541 19.6977 14.1304 19.7769 13.7925C19.7868 13.7504 19.796 13.5928 19.7024 13.5097C19.6089 13.4266 19.4708 13.455 19.3711 13.4776C19.2299 13.5096 16.9803 14.9965 12.6222 17.9384C11.9837 18.3768 11.4053 18.5905 10.8871 18.5793C10.3158 18.5669 9.21694 18.2563 8.39999 17.9907C7.39796 17.665 6.60161 17.4928 6.67096 16.9397C6.70707 16.6515 7.10384 16.3568 7.86123 16.0557Z" fill="white"/>
  <defs>
    <linearGradient id="paint0_linear_1_6808" x1="16" y1="0.189941" x2="16" y2="31.9525" gradientUnits="userSpaceOnUse">
      <stop stop-color="#2AABEE"/>
      <stop offset="1" stop-color="#229ED9"/>
    </linearGradient>
  </defs>
</svg>