<svg xmlns="http://www.w3.org/2000/svg" width="32" height="33" viewBox="0 0 32 33" fill="none">
  <path d="M32 27.7455C32 30.2344 30.0444 32.1899 27.5556 32.1899H4.44444C1.95556 32.1899 0 30.2344 0 27.7455V4.63439C0 2.1455 1.95556 0.189941 4.44444 0.189941H27.5556C30.0444 0.189941 32 2.1455 32 4.63439V27.7455Z" fill="#3B5998"/>
  <path d="M25.2444 17.0788H22.2222V28.6343H17.7778V17.0788H15.1111V13.5232H17.7778V11.3899C17.7778 8.27878 19.1111 6.41211 22.7555 6.41211H25.7778V9.96767H23.7333C22.3111 9.96767 22.2222 10.501 22.2222 11.4788V13.5232H25.7778L25.2444 17.0788Z" fill="white"/>
</svg>